{
  "asset": {
    "version": "2.0",
    "generator": "babylon.js glTF exporter for 3dsmax 2024 v20240312.5"
  },
  "scene": 0,
  "scenes": [
    {
      "nodes": [
        0
      ]
    }
  ],
  "nodes": [
    {
      "children": [
        1,
        2,
        3,
        4,
        5
      ],
      "mesh": 0,
      "name": "Topper-Foam-Bloc"
    },
    {
      "mesh": 1,
      "name": "Topper-Flow-Circuit-Right"
    },
    {
      "mesh": 1,
      "name": "Topper-Flow-Circuit-Left"
    },
    {
      "mesh": 2,
      "translation": [
        0.0,
        0.0,
        0.923238039
      ],
      "rotation": [
        0.7071068,
        0.0,
        0.0,
        0.7071067
      ],
      "name": "Cord-Circuit-P1-Right"
    },
    {
      "mesh": 3,
      "translation": [
        0.0,
        0.0,
        0.923238039
      ],
      "rotation": [
        0.0,
        -0.7071068,
        0.7071067,
        0.0
      ],
      "scale": [
        1.0,
        -1.0,
        1.0
      ],
      "name": "Cord-Circuit-P1-Left"
    },
    {
      "mesh": 4,
      "translation": [
        0.01445147,
        -0.430379063,
        1.1969378
      ],
      "rotation": [
        0.7071068,
        0.0,
        0.0,
        0.7071067
      ],
      "name": "Cord-Circuit-P2-Left"
    }
  ],
  "meshes": [
    {
      "primitives": [
        {
          "attributes": {
            "POSITION": 1,
            "NORMAL": 2,
            "TEXCOORD_0": 3
          },
          "indices": 0
        }
      ],
      "name": "Topper-Foam-Bloc"
    },
    {
      "primitives": [
        {
          "attributes": {
            "POSITION": 5,
            "NORMAL": 6,
            "TEXCOORD_0": 7
          },
          "indices": 4,
          "material": 0
        }
      ],
      "name": "Topper-Flow-Circuit-Right"
    },
    {
      "primitives": [
        {
          "attributes": {
            "POSITION": 9,
            "NORMAL": 10,
            "TEXCOORD_0": 11
          },
          "indices": 8,
          "material": 1
        }
      ],
      "name": "Cord-Circuit-P1-Right"
    },
    {
      "primitives": [
        {
          "attributes": {
            "POSITION": 13,
            "NORMAL": 14,
            "TEXCOORD_0": 15
          },
          "indices": 12,
          "material": 1
        }
      ],
      "name": "Cord-Circuit-P1-Left"
    },
    {
      "primitives": [
        {
          "attributes": {
            "POSITION": 17,
            "NORMAL": 18,
            "TEXCOORD_0": 19
          },
          "indices": 16,
          "material": 2
        }
      ],
      "name": "Cord-Circuit-P2-Left"
    }
  ],
  "accessors": [
    {
      "bufferView": 0,
      "componentType": 5123,
      "count": 5604,
      "type": "SCALAR",
      "name": "accessorIndices"
    },
    {
      "bufferView": 1,
      "componentType": 5126,
      "count": 1076,
      "max": [
        0.901715636,
        0.0134023326,
        0.9002622
      ],
      "min": [
        -0.8982845,
        -0.0225976687,
        -1.099738
      ],
      "type": "VEC3",
      "name": "accessorPositions"
    },
    {
      "bufferView": 1,
      "byteOffset": 12912,
      "componentType": 5126,
      "count": 1076,
      "type": "VEC3",
      "name": "accessorNormals"
    },
    {
      "bufferView": 2,
      "componentType": 5126,
      "count": 1076,
      "type": "VEC2",
      "name": "accessorUVs"
    },
    {
      "bufferView": 0,
      "byteOffset": 11208,
      "componentType": 5123,
      "count": 23760,
      "type": "SCALAR",
      "name": "accessorIndices"
    },
    {
      "bufferView": 1,
      "byteOffset": 25824,
      "componentType": 5126,
      "count": 5618,
      "max": [
        0.0392752029,
        0.009848205,
        0.941281557
      ],
      "min": [
        -0.8446116,
        -0.009848083,
        -1.0190866
      ],
      "type": "VEC3",
      "name": "accessorPositions"
    },
    {
      "bufferView": 1,
      "byteOffset": 93240,
      "componentType": 5126,
      "count": 5618,
      "type": "VEC3",
      "name": "accessorNormals"
    },
    {
      "bufferView": 2,
      "byteOffset": 8608,
      "componentType": 5126,
      "count": 5618,
      "type": "VEC2",
      "name": "accessorUVs"
    },
    {
      "bufferView": 0,
      "byteOffset": 58728,
      "componentType": 5123,
      "count": 6912,
      "type": "SCALAR",
      "name": "accessorIndices"
    },
    {
      "bufferView": 1,
      "byteOffset": 160656,
      "componentType": 5126,
      "count": 1679,
      "max": [
        0.0943596661,
        0.28424257,
        0.4398482
      ],
      "min": [
        0.004511589,
        -0.0157574471,
        -0.009999887
      ],
      "type": "VEC3",
      "name": "accessorPositions"
    },
    {
      "bufferView": 1,
      "byteOffset": 180804,
      "componentType": 5126,
      "count": 1679,
      "type": "VEC3",
      "name": "accessorNormals"
    },
    {
      "bufferView": 2,
      "byteOffset": 53552,
      "componentType": 5126,
      "count": 1679,
      "type": "VEC2",
      "name": "accessorUVs"
    },
    {
      "bufferView": 0,
      "byteOffset": 72552,
      "componentType": 5123,
      "count": 6912,
      "type": "SCALAR",
      "name": "accessorIndices"
    },
    {
      "bufferView": 1,
      "byteOffset": 200952,
      "componentType": 5126,
      "count": 1679,
      "max": [
        0.0943596661,
        0.28424257,
        0.4398482
      ],
      "min": [
        0.004511589,
        -0.0157574471,
        -0.009999887
      ],
      "type": "VEC3",
      "name": "accessorPositions"
    },
    {
      "bufferView": 1,
      "byteOffset": 221100,
      "componentType": 5126,
      "count": 1679,
      "type": "VEC3",
      "name": "accessorNormals"
    },
    {
      "bufferView": 2,
      "byteOffset": 66984,
      "componentType": 5126,
      "count": 1679,
      "type": "VEC2",
      "name": "accessorUVs"
    },
    {
      "bufferView": 0,
      "byteOffset": 86376,
      "componentType": 5123,
      "count": 8358,
      "type": "SCALAR",
      "name": "accessorIndices"
    },
    {
      "bufferView": 1,
      "byteOffset": 241248,
      "componentType": 5126,
      "count": 1580,
      "max": [
        0.0100000007,
        0.59764117,
        0.0100000007
      ],
      "min": [
        -0.350501329,
        1.38777878E-16,
        -0.0100000007
      ],
      "type": "VEC3",
      "name": "accessorPositions"
    },
    {
      "bufferView": 1,
      "byteOffset": 260208,
      "componentType": 5126,
      "count": 1580,
      "type": "VEC3",
      "name": "accessorNormals"
    },
    {
      "bufferView": 2,
      "byteOffset": 80416,
      "componentType": 5126,
      "count": 1580,
      "type": "VEC2",
      "name": "accessorUVs"
    }
  ],
  "bufferViews": [
    {
      "buffer": 0,
      "byteLength": 103092,
      "name": "bufferViewScalar"
    },
    {
      "buffer": 0,
      "byteOffset": 103092,
      "byteLength": 279168,
      "byteStride": 12,
      "name": "bufferViewFloatVec3"
    },
    {
      "buffer": 0,
      "byteOffset": 382260,
      "byteLength": 93056,
      "byteStride": 8,
      "name": "bufferViewFloatVec2"
    }
  ],
  "buffers": [
    {
      "uri": "topper_foams_pipes_01.bin",
      "byteLength": 475316
    }
  ],
  "materials": [
    {
      "pbrMetallicRoughness": {
        "baseColorFactor": [
          0.7921569,
          0.819607854,
          0.933333337,
          1.0
        ],
        "metallicFactor": 0.0
      },
      "doubleSided": true,
      "name": "Material #29",
      "extras": {
        "babylonSeparateCullingPass": false
      }
    },
    {
      "pbrMetallicRoughness": {
        "baseColorFactor": [
          0.7921569,
          0.819607854,
          0.933333337,
          1.0
        ],
        "metallicFactor": 0.0
      },
      "doubleSided": true,
      "name": "Material #30",
      "extras": {
        "babylonSeparateCullingPass": false
      }
    },
    {
      "pbrMetallicRoughness": {
        "baseColorFactor": [
          0.7921569,
          0.819607854,
          0.933333337,
          1.0
        ],
        "metallicFactor": 0.0
      },
      "doubleSided": true,
      "name": "Material #33",
      "extras": {
        "babylonSeparateCullingPass": false
      }
    }
  ]
}