{
  "asset": {
    "version": "2.0",
    "generator": "babylon.js glTF exporter for 3dsmax 2024 v20240312.5"
  },
  "scene": 0,
  "scenes": [
    {
      "nodes": [
        0
      ]
    }
  ],
  "nodes": [
    {
      "mesh": 0,
      "rotation": [
        0.7071068,
        0.0,
        0.0,
        0.7071067
      ],
      "scale": [
        1000.0,
        1000.0,
        1000.0
      ],
      "name": "carpetFluffy"
    }
  ],
  "meshes": [
    {
      "primitives": [
        {
          "attributes": {
            "POSITION": 1,
            "NORMAL": 2
          },
          "indices": 0,
          "material": 0
        }
      ],
      "name": "carpetFluffy"
    }
  ],
  "accessors": [
    {
      "bufferView": 0,
      "componentType": 5125,
      "count": 194826,
      "type": "SCALAR",
      "name": "accessorIndices"
    },
    {
      "bufferView": 1,
      "componentType": 5126,
      "count": 145137,
      "max": [
        0.000726235,
        0.000991842,
        4.96720022E-05
      ],
      "min": [
        -0.000724546029,
        -0.0009896691,
        -4.36424052E-05
      ],
      "type": "VEC3",
      "name": "accessorPositions"
    },
    {
      "bufferView": 1,
      "byteOffset": 1741644,
      "componentType": 5126,
      "count": 145137,
      "type": "VEC3",
      "name": "accessorNormals"
    }
  ],
  "bufferViews": [
    {
      "buffer": 0,
      "byteLength": 779304,
      "name": "bufferViewScalar"
    },
    {
      "buffer": 0,
      "byteOffset": 779304,
      "byteLength": 3483288,
      "byteStride": 12,
      "name": "bufferViewFloatVec3"
    }
  ],
  "buffers": [
    {
      "uri": "bedSideCarpet_02.bin",
      "byteLength": 4262592
    }
  ],
  "materials": [
    {
      "pbrMetallicRoughness": {
        "baseColorFactor": [
          0.588,
          0.588,
          0.588,
          1.0
        ],
        "metallicFactor": 0.0,
        "roughnessFactor": 0.5678072
      },
      "doubleSided": true,
      "name": "CarpetFluffy",
      "extras": {
        "babylonSeparateCullingPass": false
      }
    }
  ]
}