{
  "asset": {
    "version": "2.0",
    "generator": "babylon.js glTF exporter for 3dsmax 2024 v20240312.5"
  },
  "scene": 0,
  "scenes": [
    {
      "nodes": [
        0
      ]
    }
  ],
  "nodes": [
    {
      "mesh": 0,
      "rotation": [
        -0.5,
        -0.5,
        0.5,
        -0.5
      ],
      "name": "podScreenProjection"
    }
  ],
  "meshes": [
    {
      "primitives": [
        {
          "attributes": {
            "POSITION": 1,
            "NORMAL": 2,
            "TEXCOORD_0": 3
          },
          "indices": 0,
          "material": 0
        }
      ],
      "name": "podScreenProjection"
    }
  ],
  "accessors": [
    {
      "bufferView": 0,
      "componentType": 5123,
      "count": 3852,
      "type": "SCALAR",
      "name": "accessorIndices"
    },
    {
      "bufferView": 1,
      "componentType": 5126,
      "count": 730,
      "max": [
        0.530003,
        0.033,
        0.0
      ],
      "min": [
        -0.5300001,
        -0.1,
        -0.930000067
      ],
      "type": "VEC3",
      "name": "accessorPositions"
    },
    {
      "bufferView": 1,
      "byteOffset": 8760,
      "componentType": 5126,
      "count": 730,
      "type": "VEC3",
      "name": "accessorNormals"
    },
    {
      "bufferView": 2,
      "componentType": 5126,
      "count": 730,
      "type": "VEC2",
      "name": "accessorUVs"
    }
  ],
  "bufferViews": [
    {
      "buffer": 0,
      "byteLength": 7704,
      "name": "bufferViewScalar"
    },
    {
      "buffer": 0,
      "byteOffset": 7704,
      "byteLength": 17520,
      "byteStride": 12,
      "name": "bufferViewFloatVec3"
    },
    {
      "buffer": 0,
      "byteOffset": 25224,
      "byteLength": 5840,
      "byteStride": 8,
      "name": "bufferViewFloatVec2"
    }
  ],
  "buffers": [
    {
      "uri": "POD_Screen_Projection_01.bin",
      "byteLength": 31064
    }
  ],
  "materials": [
    {
      "pbrMetallicRoughness": {
        "baseColorFactor": [
          0.7921569,
          0.819607854,
          0.933333337,
          1.0
        ],
        "metallicFactor": 0.0
      },
      "doubleSided": true,
      "name": "Material #26",
      "extras": {
        "babylonSeparateCullingPass": false
      }
    }
  ]
}