{
  "asset": {
    "version": "2.0",
    "generator": "babylon.js glTF exporter for 3dsmax 2024 v20240312.5"
  },
  "scene": 0,
  "scenes": [
    {
      "nodes": [
        0
      ]
    }
  ],
  "nodes": [
    {
      "children": [
        1,
        2,
        3,
        4
      ],
      "mesh": 0,
      "rotation": [
        -0.5,
        -0.5,
        0.5,
        -0.5
      ],
      "name": "Pod-Main-Chassis"
    },
    {
      "mesh": 1,
      "name": "Pod-Fluid-Tank"
    },
    {
      "mesh": 2,
      "name": "Pod-Left-Chassis"
    },
    {
      "mesh": 3,
      "name": "Pod-Right-Chassis"
    },
    {
      "mesh": 4,
      "name": "Pod-Screen"
    }
  ],
  "meshes": [
    {
      "primitives": [
        {
          "attributes": {
            "POSITION": 1,
            "NORMAL": 2,
            "TEXCOORD_0": 3
          },
          "indices": 0,
          "material": 0
        }
      ],
      "name": "Pod-Main-Chassis"
    },
    {
      "primitives": [
        {
          "attributes": {
            "POSITION": 5,
            "NORMAL": 6,
            "TEXCOORD_0": 7
          },
          "indices": 4,
          "material": 0
        }
      ],
      "name": "Pod-Fluid-Tank"
    },
    {
      "primitives": [
        {
          "attributes": {
            "POSITION": 9,
            "NORMAL": 10,
            "TEXCOORD_0": 11
          },
          "indices": 8,
          "material": 0
        }
      ],
      "name": "Pod-Left-Chassis"
    },
    {
      "primitives": [
        {
          "attributes": {
            "POSITION": 13,
            "NORMAL": 14,
            "TEXCOORD_0": 15
          },
          "indices": 12,
          "material": 0
        }
      ],
      "name": "Pod-Right-Chassis"
    },
    {
      "primitives": [
        {
          "attributes": {
            "POSITION": 17,
            "NORMAL": 18,
            "TEXCOORD_0": 19
          },
          "indices": 16,
          "material": 0
        }
      ],
      "name": "Pod-Screen"
    }
  ],
  "accessors": [
    {
      "bufferView": 0,
      "componentType": 5123,
      "count": 876,
      "type": "SCALAR",
      "name": "accessorIndices"
    },
    {
      "bufferView": 1,
      "componentType": 5126,
      "count": 334,
      "max": [
        0.125,
        0.210000008,
        0.210000008
      ],
      "min": [
        -0.125,
        -0.210000008,
        -0.210000008
      ],
      "type": "VEC3",
      "name": "accessorPositions"
    },
    {
      "bufferView": 1,
      "byteOffset": 4008,
      "componentType": 5126,
      "count": 334,
      "type": "VEC3",
      "name": "accessorNormals"
    },
    {
      "bufferView": 2,
      "componentType": 5126,
      "count": 334,
      "type": "VEC2",
      "name": "accessorUVs"
    },
    {
      "bufferView": 0,
      "byteOffset": 1752,
      "componentType": 5123,
      "count": 6600,
      "type": "SCALAR",
      "name": "accessorIndices"
    },
    {
      "bufferView": 1,
      "byteOffset": 8016,
      "componentType": 5126,
      "count": 1707,
      "max": [
        0.0848973244,
        0.09200001,
        0.158702329
      ],
      "min": [
        -0.07489733,
        -0.203087956,
        -0.110897519
      ],
      "type": "VEC3",
      "name": "accessorPositions"
    },
    {
      "bufferView": 1,
      "byteOffset": 28500,
      "componentType": 5126,
      "count": 1707,
      "type": "VEC3",
      "name": "accessorNormals"
    },
    {
      "bufferView": 2,
      "byteOffset": 2672,
      "componentType": 5126,
      "count": 1707,
      "type": "VEC2",
      "name": "accessorUVs"
    },
    {
      "bufferView": 0,
      "byteOffset": 14952,
      "componentType": 5123,
      "count": 276,
      "type": "SCALAR",
      "name": "accessorIndices"
    },
    {
      "bufferView": 1,
      "byteOffset": 48984,
      "componentType": 5126,
      "count": 110,
      "max": [
        -0.121000007,
        0.205000013,
        0.205000013
      ],
      "min": [
        -0.125,
        -0.205000013,
        -0.205000013
      ],
      "type": "VEC3",
      "name": "accessorPositions"
    },
    {
      "bufferView": 1,
      "byteOffset": 50304,
      "componentType": 5126,
      "count": 110,
      "type": "VEC3",
      "name": "accessorNormals"
    },
    {
      "bufferView": 2,
      "byteOffset": 16328,
      "componentType": 5126,
      "count": 110,
      "type": "VEC2",
      "name": "accessorUVs"
    },
    {
      "bufferView": 0,
      "byteOffset": 15504,
      "componentType": 5123,
      "count": 276,
      "type": "SCALAR",
      "name": "accessorIndices"
    },
    {
      "bufferView": 1,
      "byteOffset": 51624,
      "componentType": 5126,
      "count": 110,
      "max": [
        0.125,
        0.205000013,
        0.205000013
      ],
      "min": [
        0.121000007,
        -0.205000013,
        -0.205000013
      ],
      "type": "VEC3",
      "name": "accessorPositions"
    },
    {
      "bufferView": 1,
      "byteOffset": 52944,
      "componentType": 5126,
      "count": 110,
      "type": "VEC3",
      "name": "accessorNormals"
    },
    {
      "bufferView": 2,
      "byteOffset": 17208,
      "componentType": 5126,
      "count": 110,
      "type": "VEC2",
      "name": "accessorUVs"
    },
    {
      "bufferView": 0,
      "byteOffset": 16056,
      "componentType": 5123,
      "count": 276,
      "type": "SCALAR",
      "name": "accessorIndices"
    },
    {
      "bufferView": 1,
      "byteOffset": 54264,
      "componentType": 5126,
      "count": 111,
      "max": [
        0.0530000031,
        0.147,
        -0.208
      ],
      "min": [
        -0.0530000031,
        0.081,
        -0.212000012
      ],
      "type": "VEC3",
      "name": "accessorPositions"
    },
    {
      "bufferView": 1,
      "byteOffset": 55596,
      "componentType": 5126,
      "count": 111,
      "type": "VEC3",
      "name": "accessorNormals"
    },
    {
      "bufferView": 2,
      "byteOffset": 18088,
      "componentType": 5126,
      "count": 111,
      "type": "VEC2",
      "name": "accessorUVs"
    }
  ],
  "bufferViews": [
    {
      "buffer": 0,
      "byteLength": 16608,
      "name": "bufferViewScalar"
    },
    {
      "buffer": 0,
      "byteOffset": 16608,
      "byteLength": 56928,
      "byteStride": 12,
      "name": "bufferViewFloatVec3"
    },
    {
      "buffer": 0,
      "byteOffset": 73536,
      "byteLength": 18976,
      "byteStride": 8,
      "name": "bufferViewFloatVec2"
    }
  ],
  "buffers": [
    {
      "uri": "Vertical_POD_V01.bin",
      "byteLength": 92512
    }
  ],
  "materials": [
    {
      "pbrMetallicRoughness": {
        "baseColorFactor": [
          0.7921569,
          0.819607854,
          0.933333337,
          1.0
        ],
        "metallicFactor": 0.0
      },
      "doubleSided": true,
      "name": "Material #33",
      "extras": {
        "babylonSeparateCullingPass": false
      }
    }
  ]
}